<svg xmlns="http://www.w3.org/2000/svg" width="675.0117797851562" height="569.81787109375" viewBox="-173.10890197753906 -202.518310546875 675.0117797851562 569.81787109375"><title>Neo4j Graph Visualization</title><desc>Created using Neo4j (http://www.neo4j.com/)</desc><g class="layer relationships"><g class="relationship" transform="translate(172.05166501972988 94.33297891842138) rotate(348.85153624449526)"><path class="outline" fill="#A5ABB6" stroke="none" d="M 32.5 0.5 L 40.3429746821805 0.5 L 40.3429746821805 -0.5 L 32.5 -0.5 Z M 75.6828184321805 0.5 L 83.525793114361 0.5 L 83.525793114361 3.5 L 90.525793114361 0 L 83.525793114361 -3.5 L 83.525793114361 -0.5 L 75.6828184321805 -0.5 Z"/><text text-anchor="middle" pointer-events="none" font-size="8px" fill="#000000" x="58.0128965571805" y="3" font-family="sans-serif">Member</text></g><g class="relationship" transform="translate(-136.60890401933813 7.986546588005918) rotate(337.5260488443664)"><path class="outline" fill="#A5ABB6" stroke="none" d="M 32.5 0.5 L 44.54865200570299 0.5 L 44.54865200570299 -0.5 L 32.5 -0.5 Z M 79.88849575570299 0.5 L 91.93714776140598 0.5 L 91.93714776140598 3.5 L 98.93714776140598 0 L 91.93714776140598 -3.5 L 91.93714776140598 -0.5 L 79.88849575570299 -0.5 Z"/><text text-anchor="middle" pointer-events="none" font-size="8px" fill="#000000" x="62.21857388070299" y="3" font-family="sans-serif">Member</text></g><g class="relationship" transform="translate(70.46500195927149 330.7995553880346) rotate(254.58701929085174)"><path class="outline" fill="#A5ABB6" stroke="none" d="M 32.5 0.5 L 43.45623094100809 0.5 L 43.45623094100809 -0.5 L 32.5 -0.5 Z M 78.79607469100809 0.5 L 89.75230563201617 0.5 L 89.75230563201617 3.5 L 96.75230563201617 0 L 89.75230563201617 -3.5 L 89.75230563201617 -0.5 L 78.79607469100809 -0.5 Z"/><text text-anchor="middle" pointer-events="none" font-size="8px" fill="#000000" x="61.12615281600809" y="3" transform="rotate(180 61.12615281600809 0)" font-family="sans-serif">Member</text></g><g class="relationship" transform="translate(304.4368094947662 -66.76700984243757) rotate(451.82223990958835)"><path class="outline" fill="#A5ABB6" stroke="none" d="M 32.5 0.5 L 43.04573648955858 0.5 L 43.04573648955858 -0.5 L 32.5 -0.5 Z M 78.38558023955858 0.5 L 88.93131672911716 0.5 L 88.93131672911716 3.5 L 95.93131672911716 0 L 88.93131672911716 -3.5 L 88.93131672911716 -0.5 L 78.38558023955858 -0.5 Z"/><text text-anchor="middle" pointer-events="none" font-size="8px" fill="#000000" x="60.71565836455858" y="3" transform="rotate(180 60.71565836455858 0)" font-family="sans-serif">Member</text></g><g class="relationship" transform="translate(-95.79113227528617 238.95089807457956) rotate(342.8921098059768)"><path class="outline" fill="#A5ABB6" stroke="none" d="M 32.5 0.5 L 43.04267948937735 0.5 L 43.04267948937735 -0.5 L 32.5 -0.5 Z M 78.38252323937735 0.5 L 88.9252027287547 0.5 L 88.9252027287547 3.5 L 95.9252027287547 0 L 88.9252027287547 -3.5 L 88.9252027287547 -0.5 L 78.38252323937735 -0.5 Z"/><text text-anchor="middle" pointer-events="none" font-size="8px" fill="#000000" x="60.71260136437735" y="3" font-family="sans-serif">Member</text></g><g class="relationship" transform="translate(211.78669865429973 -30.570442067388402) rotate(408.45146180969874)"><path class="outline" fill="#A5ABB6" stroke="none" d="M 32.5 0.5 L 41.66665717398102 0.5 L 41.66665717398102 -0.5 L 32.5 -0.5 Z M 77.00650092398102 0.5 L 86.17315809796204 0.5 L 86.17315809796204 3.5 L 93.17315809796204 0 L 86.17315809796204 -3.5 L 86.17315809796204 -0.5 L 77.00650092398102 -0.5 Z"/><text text-anchor="middle" pointer-events="none" font-size="8px" fill="#000000" x="59.33657904898102" y="3" font-family="sans-serif">Member</text></g><g class="relationship" transform="translate(390.74429928579497 170.6558827842317) rotate(228.25506116813847)"><path class="outline" fill="#A5ABB6" stroke="none" d="M 32.5 0.5 L 43.13939544360055 0.5 L 43.13939544360055 -0.5 L 32.5 -0.5 Z M 78.47923919360055 0.5 L 89.1186346372011 0.5 L 89.1186346372011 3.5 L 96.1186346372011 0 L 89.1186346372011 -3.5 L 89.1186346372011 -0.5 L 78.47923919360055 -0.5 Z"/><text text-anchor="middle" pointer-events="none" font-size="8px" fill="#000000" x="60.80931731860055" y="3" transform="rotate(180 60.80931731860055 0)" font-family="sans-serif">Member</text></g><g class="relationship" transform="translate(62.271633693826125 -156.68549957034756) rotate(482.28860912051226)"><path class="outline" fill="#A5ABB6" stroke="none" d="M 32.5 0.5 L 41.064039146049595 0.5 L 41.064039146049595 -0.5 L 32.5 -0.5 Z M 76.4038828960496 0.5 L 84.96792204209919 0.5 L 84.96792204209919 3.5 L 91.96792204209919 0 L 84.96792204209919 -3.5 L 84.96792204209919 -0.5 L 76.4038828960496 -0.5 Z"/><text text-anchor="middle" pointer-events="none" font-size="8px" fill="#000000" x="58.733961021049595" y="3" transform="rotate(180 58.733961021049595 0)" font-family="sans-serif">Member</text></g><g class="relationship" transform="translate(300.1143669601665 69.09556542480314) rotate(284.5824642022269)"><path class="outline" fill="#F16667" stroke="none" d="M 11.801650543534434 38.24880448390895 L 22.154412347635265 76.88583753547168 A 22.935935394489817 22.935935394489817 0 1 1 -22.154412347635265 76.88583753547168 L -14.13102194945712 46.94213692051056 L -8.33546699172271 48.49505119112569 L -10.352761804100831 38.63703305156273 L -17.028799428324326 46.165679785203004 L -11.233244470589915 47.71859405581813 L -19.25663486876806 77.66229467077923 A 19.935935394489817 19.935935394489817 0 1 0 19.25663486876806 77.66229467077923 L 8.903873064667229 39.02526161921651 Z"/><text text-anchor="middle" pointer-events="none" font-size="8px" fill="#000000" x="0" y="114.75802982729645" font-family="sans-serif">ENEMY</text></g><g class="relationship" transform="translate(300.1143669601665 69.09556542480314) rotate(513.9763927417731)"><path class="outline" fill="#F16667" stroke="none" d="M 38.24880448390895,-11.801650543534432 L 39.025261619216515,-8.903873064667227 A 415.82935953199734 415.82935953199734 0 0 1 126.31635005178978,-22.57547837675611 L 126.1696542820396,-25.571889622085678 A 418.82935953199734 418.82935953199734 0 0 0 38.24880448390895,-11.801650543534432 Z M 160.73186833858765,-25.83611179881609 L 160.63100113356094,-22.83780797716122 A 415.82935953199734 415.82935953199734 0 0 1 248.1209089099065,-10.502373293315863 L 247.38884595760393,-7.593063438063925 L 257.21486995181357,-9.760839364034151 L 249.5850348145116,-16.32099300381974 L 248.85297186220905,-13.411683148567803 A 418.82935953199734 418.82935953199734 0 0 0 160.73186833858765,-25.83611179881609"/><text text-anchor="middle" pointer-events="none" font-size="8px" fill="#000000" x="143.4595014917966" y="-21.56072035811212" transform="rotate(180 143.4595014917966 -24.56072035811212)" font-family="sans-serif">ENEMY</text></g><g class="relationship" transform="translate(300.1143669601665 69.09556542480314) rotate(200.32646513946264)"><path class="outline" fill="#F16667" stroke="none" d="M 38.24880448390895,-11.801650543534432 L 39.025261619216515,-8.903873064667227 A 479.73104159982233 479.73104159982233 0 0 1 142.71318664316192,-24.813148710631253 L 142.58514236443017,-27.810414908799828 A 482.73104159982233 482.73104159982233 0 0 0 38.24880448390895,-11.801650543534432 Z M 177.1335386323133,-28.04885754605249 L 177.04687703992442,-25.050109512555082 A 479.73104159982233 479.73104159982233 0 0 1 280.9445161155282,-10.5735269784706 L 280.20813021889717,-7.665308312131546 L 290.0373650628609,-9.818478621747031 L 282.4172879087903,-16.38996431114871 L 281.68090201215927,-13.481745644809656 A 482.73104159982233 482.73104159982233 0 0 0 177.1335386323133,-28.04885754605249"/><text text-anchor="middle" pointer-events="none" font-size="8px" fill="#000000" x="159.86755893995723" y="-23.73885097244022" transform="rotate(180 159.86755893995723 -26.73885097244022)" font-family="sans-serif">ENEMY</text></g><g class="relationship" transform="translate(300.1143669601665 69.09556542480314) rotate(301.41876268518274)"><path class="outline" fill="#8DCC93" stroke="none" d="M 11.801650543534434 38.24880448390895 L 22.154412347635265 76.88583753547168 A 22.935935394489817 22.935935394489817 0 1 1 -22.154412347635265 76.88583753547168 L -14.13102194945712 46.94213692051056 L -8.33546699172271 48.49505119112569 L -10.352761804100831 38.63703305156273 L -17.028799428324326 46.165679785203004 L -11.233244470589915 47.71859405581813 L -19.25663486876806 77.66229467077923 A 19.935935394489817 19.935935394489817 0 1 0 19.25663486876806 77.66229467077923 L 8.903873064667229 39.02526161921651 Z"/><text text-anchor="middle" pointer-events="none" font-size="8px" fill="#000000" x="0" y="114.75802982729645" font-family="sans-serif">FRIEND</text></g><g class="relationship" transform="translate(-8.223557535795578 -45.12403462116075) rotate(380.32646513946264)"><path class="outline" fill="#F16667" stroke="none" d="M 38.24880448390895,-11.801650543534432 L 39.025261619216515,-8.903873064667227 A 479.73104159982233 479.73104159982233 0 0 1 142.71318664316192,-24.813148710631253 L 142.58514236443017,-27.810414908799828 A 482.73104159982233 482.73104159982233 0 0 0 38.24880448390895,-11.801650543534432 Z M 177.1335386323133,-28.04885754605249 L 177.04687703992442,-25.050109512555082 A 479.73104159982233 479.73104159982233 0 0 1 280.9445161155282,-10.5735269784706 L 280.20813021889717,-7.665308312131546 L 290.0373650628609,-9.818478621747031 L 282.4172879087903,-16.38996431114871 L 281.68090201215927,-13.481745644809656 A 482.73104159982233 482.73104159982233 0 0 0 177.1335386323133,-28.04885754605249"/><text text-anchor="middle" pointer-events="none" font-size="8px" fill="#000000" x="159.86755893995723" y="-23.73885097244022" font-family="sans-serif">ENEMY</text></g><g class="relationship" transform="translate(-8.223557535795578 -45.12403462116075) rotate(440.15859151791506)"><path class="outline" fill="#F16667" stroke="none" d="M 38.24880448390895,-11.801650543534432 L 39.025261619216515,-8.903873064667227 A 321.5591205100429 321.5591205100429 0 0 1 102.19833972283021,-19.2348832195687 L 102.0112586064962,-22.22904431341641 A 324.5591205100429 324.5591205100429 0 0 0 38.24880448390895,-11.801650543534432 Z M 136.60260674994225,-22.543268861261936 L 136.4699493722008,-19.5462032930551 A 321.5591205100429 321.5591205100429 0 0 1 199.82027894621928,-10.364519854317189 L 199.0965918740919,-7.453115206791233 L 208.91633642486082,-9.649160961698094 L 201.267653090474,-16.1873291493691 L 200.54396601834662,-13.275924501843145 A 324.5591205100429 324.5591205100429 0 0 0 136.60260674994225,-22.543268861261936"/><text text-anchor="middle" pointer-events="none" font-size="8px" fill="#000000" x="119.31636858861182" y="-18.3474062297405" font-family="sans-serif">ENEMY</text></g><g class="relationship" transform="translate(-8.223557535795578 -45.12403462116075) rotate(238.30122779349577)"><path class="outline" fill="#F16667" stroke="none" d="M 11.801650543534434 38.24880448390895 L 22.154412347635265 76.88583753547168 A 22.935935394489817 22.935935394489817 0 1 1 -22.154412347635265 76.88583753547168 L -14.13102194945712 46.94213692051056 L -8.33546699172271 48.49505119112569 L -10.352761804100831 38.63703305156273 L -17.028799428324326 46.165679785203004 L -11.233244470589915 47.71859405581813 L -19.25663486876806 77.66229467077923 A 19.935935394489817 19.935935394489817 0 1 0 19.25663486876806 77.66229467077923 L 8.903873064667229 39.02526161921651 Z"/><text text-anchor="middle" pointer-events="none" font-size="8px" fill="#000000" x="0" y="114.75802982729645" transform="rotate(180 0 111.75802982729645)" font-family="sans-serif">ENEMY</text></g><g class="relationship" transform="translate(-8.223557535795578 -45.12403462116075) rotate(264.3138464664793)"><path class="outline" fill="#8DCC93" stroke="none" d="M 11.801650543534434 38.24880448390895 L 22.154412347635265 76.88583753547168 A 22.935935394489817 22.935935394489817 0 1 1 -22.154412347635265 76.88583753547168 L -14.13102194945712 46.94213692051056 L -8.33546699172271 48.49505119112569 L -10.352761804100831 38.63703305156273 L -17.028799428324326 46.165679785203004 L -11.233244470589915 47.71859405581813 L -19.25663486876806 77.66229467077923 A 19.935935394489817 19.935935394489817 0 1 0 19.25663486876806 77.66229467077923 L 8.903873064667229 39.02526161921651 Z"/><text text-anchor="middle" pointer-events="none" font-size="8px" fill="#000000" x="0" y="114.75802982729645" transform="rotate(180 0 111.75802982729645)" font-family="sans-serif">FRIEND</text></g><g class="relationship" transform="translate(34.1197218783166 198.96551687176483) rotate(260.15859151791506)"><path class="outline" fill="#F16667" stroke="none" d="M 38.24880448390895,-11.801650543534432 L 39.025261619216515,-8.903873064667227 A 321.5591205100429 321.5591205100429 0 0 1 102.19833972283021,-19.2348832195687 L 102.0112586064962,-22.22904431341641 A 324.5591205100429 324.5591205100429 0 0 0 38.24880448390895,-11.801650543534432 Z M 136.60260674994225,-22.543268861261936 L 136.4699493722008,-19.5462032930551 A 321.5591205100429 321.5591205100429 0 0 1 199.82027894621928,-10.364519854317189 L 199.0965918740919,-7.453115206791233 L 208.91633642486082,-9.649160961698094 L 201.267653090474,-16.1873291493691 L 200.54396601834662,-13.275924501843145 A 324.5591205100429 324.5591205100429 0 0 0 136.60260674994225,-22.543268861261936"/><text text-anchor="middle" pointer-events="none" font-size="8px" fill="#000000" x="119.31636858861182" y="-18.3474062297405" transform="rotate(180 119.31636858861182 -21.3474062297405)" font-family="sans-serif">ENEMY</text></g><g class="relationship" transform="translate(34.1197218783166 198.96551687176483) rotate(333.9763927417731)"><path class="outline" fill="#F16667" stroke="none" d="M 38.24880448390895,-11.801650543534432 L 39.025261619216515,-8.903873064667227 A 415.82935953199734 415.82935953199734 0 0 1 126.31635005178978,-22.57547837675611 L 126.1696542820396,-25.571889622085678 A 418.82935953199734 418.82935953199734 0 0 0 38.24880448390895,-11.801650543534432 Z M 160.73186833858765,-25.83611179881609 L 160.63100113356094,-22.83780797716122 A 415.82935953199734 415.82935953199734 0 0 1 248.1209089099065,-10.502373293315863 L 247.38884595760393,-7.593063438063925 L 257.21486995181357,-9.760839364034151 L 249.5850348145116,-16.32099300381974 L 248.85297186220905,-13.411683148567803 A 418.82935953199734 418.82935953199734 0 0 0 160.73186833858765,-25.83611179881609"/><text text-anchor="middle" pointer-events="none" font-size="8px" fill="#000000" x="143.4595014917966" y="-21.56072035811212" font-family="sans-serif">ENEMY</text></g><g class="relationship" transform="translate(34.1197218783166 198.96551687176483) rotate(294.2817060163124)"><path class="outline" fill="#8DCC93" stroke="none" d="M 11.801650543534434 38.24880448390895 L 22.154412347635265 76.88583753547168 A 22.935935394489817 22.935935394489817 0 1 1 -22.154412347635265 76.88583753547168 L -14.13102194945712 46.94213692051056 L -8.33546699172271 48.49505119112569 L -10.352761804100831 38.63703305156273 L -17.028799428324326 46.165679785203004 L -11.233244470589915 47.71859405581813 L -19.25663486876806 77.66229467077923 A 19.935935394489817 19.935935394489817 0 1 0 19.25663486876806 77.66229467077923 L 8.903873064667229 39.02526161921651 Z"/><text text-anchor="middle" pointer-events="none" font-size="8px" fill="#000000" x="0" y="114.75802982729645" font-family="sans-serif">FRIEND</text></g><g class="relationship" transform="translate(-64.99393466316225 74.42220960638294) rotate(295.40220844117067)"><path class="outline" fill="#A5ABB6" stroke="none" d="M 32.5 0.5 L 41.250653587389166 0.5 L 41.250653587389166 -0.5 L 32.5 -0.5 Z M 76.59049733738917 0.5 L 85.34115092477833 0.5 L 85.34115092477833 3.5 L 92.34115092477833 0 L 85.34115092477833 -3.5 L 85.34115092477833 -0.5 L 76.59049733738917 -0.5 Z"/><text text-anchor="middle" pointer-events="none" font-size="8px" fill="#000000" x="58.920575462389166" y="3" font-family="sans-serif">Member</text></g><g class="relationship" transform="translate(-47.791728016809984 -166.0183146295799) rotate(431.8769540791948)"><path class="outline" fill="#A5ABB6" stroke="none" d="M 32.5 0.5 L 38.68248974195182 0.5 L 38.68248974195182 -0.5 L 32.5 -0.5 Z M 74.02233349195183 0.5 L 80.20482323390364 0.5 L 80.20482323390364 3.5 L 87.20482323390364 0 L 80.20482323390364 -3.5 L 80.20482323390364 -0.5 L 74.02233349195183 -0.5 Z"/><text text-anchor="middle" pointer-events="none" font-size="8px" fill="#000000" x="56.35241161695182" y="3" font-family="sans-serif">Member</text></g><g class="relationship" transform="translate(465.40287093698237 62.59028406914672) rotate(537.7461657192712)"><path class="outline" fill="#A5ABB6" stroke="none" d="M 32.5 0.5 L 57.788312649154435 0.5 L 57.788312649154435 -0.5 L 32.5 -0.5 Z M 93.12815639915443 0.5 L 118.41646904830887 0.5 L 118.41646904830887 3.5 L 125.41646904830887 0 L 118.41646904830887 -3.5 L 118.41646904830887 -0.5 L 93.12815639915443 -0.5 Z"/><text text-anchor="middle" pointer-events="none" font-size="8px" fill="#000000" x="75.45823452415443" y="3" transform="rotate(180 75.45823452415443 0)" font-family="sans-serif">Member</text></g><g class="relationship" transform="translate(228.9436275013699 192.91732272417832) rotate(299.8895912965005)"><path class="outline" fill="#A5ABB6" stroke="none" d="M 32.5 0.5 L 46.489289253217336 0.5 L 46.489289253217336 -0.5 L 32.5 -0.5 Z M 81.82913300321734 0.5 L 95.81842225643467 0.5 L 95.81842225643467 3.5 L 102.81842225643467 0 L 95.81842225643467 -3.5 L 95.81842225643467 -0.5 L 81.82913300321734 -0.5 Z"/><text text-anchor="middle" pointer-events="none" font-size="8px" fill="#000000" x="64.15921112821734" y="3" font-family="sans-serif">Member</text></g><g class="relationship" transform="translate(310.6916877581009 211.14498958291887) rotate(265.74148593439236)"><path class="outline" fill="#A5ABB6" stroke="none" d="M 32.5 0.5 L 46.3014208161391 0.5 L 46.3014208161391 -0.5 L 32.5 -0.5 Z M 81.6412645661391 0.5 L 95.4426853822782 0.5 L 95.4426853822782 3.5 L 102.4426853822782 0 L 95.4426853822782 -3.5 L 95.4426853822782 -0.5 L 81.6412645661391 -0.5 Z"/><text text-anchor="middle" pointer-events="none" font-size="8px" fill="#000000" x="63.9713426911391" y="3" transform="rotate(180 63.9713426911391 0)" font-family="sans-serif">Member</text></g><g class="relationship" transform="translate(418.06884738660585 -35.93186057461883) rotate(498.31792639754866)"><path class="outline" fill="#A5ABB6" stroke="none" d="M 32.5 0.5 L 54.04845734215142 0.5 L 54.04845734215142 -0.5 L 32.5 -0.5 Z M 89.38830109215142 0.5 L 110.93675843430285 0.5 L 110.93675843430285 3.5 L 117.93675843430285 0 L 110.93675843430285 -3.5 L 110.93675843430285 -0.5 L 89.38830109215142 -0.5 Z"/><text text-anchor="middle" pointer-events="none" font-size="8px" fill="#000000" x="71.71837921715142" y="3" transform="rotate(180 71.71837921715142 0)" font-family="sans-serif">Member</text></g><g class="relationship" transform="translate(-29.869613350427983 313.6310763540921) rotate(299.1637854926719)"><path class="outline" fill="#A5ABB6" stroke="none" d="M 32.5 0.5 L 40.73604806378734 0.5 L 40.73604806378734 -0.5 L 32.5 -0.5 Z M 76.07589181378734 0.5 L 84.31193987757467 0.5 L 84.31193987757467 3.5 L 91.31193987757467 0 L 84.31193987757467 -3.5 L 84.31193987757467 -0.5 L 76.07589181378734 -0.5 Z"/><text text-anchor="middle" pointer-events="none" font-size="8px" fill="#000000" x="58.40596993878734" y="3" font-family="sans-serif">Member</text></g><g class="relationship" transform="translate(-128.8372393058195 -88.94638533659548) rotate(379.9675100790166)"><path class="outline" fill="#A5ABB6" stroke="none" d="M 32.5 0.5 L 39.24404513988142 0.5 L 39.24404513988142 -0.5 L 32.5 -0.5 Z M 74.58388888988142 0.5 L 81.32793402976284 0.5 L 81.32793402976284 3.5 L 88.32793402976284 0 L 81.32793402976284 -3.5 L 81.32793402976284 -0.5 L 74.58388888988142 -0.5 Z"/><text text-anchor="middle" pointer-events="none" font-size="8px" fill="#000000" x="56.91396701488142" y="3" font-family="sans-serif">Member</text></g></g><g class="layer nodes"><g class="node" transform="translate(172.05166501972988,94.33297891842138)"><circle class="outline" cx="0" cy="0" r="32.5" fill="#C990C0" stroke="#b261a5" stroke-width="2px"/><text text-anchor="middle" pointer-events="none" font-family="sans-serif" dy="2.03125" font-size="32.5" fill="#FFFFFF"/><text text-anchor="middle" pointer-events="none" y="5" font-size="10px" fill="#FFFFFF" font-family="sans-serif"> Sandor_the…</text></g><g class="node" transform="translate(-136.60890401933813,7.986546588005918)"><circle class="outline" cx="0" cy="0" r="32.5" fill="#C990C0" stroke="#b261a5" stroke-width="2px"/><text text-anchor="middle" pointer-events="none" font-family="sans-serif" dy="2.03125" font-size="32.5" fill="#FFFFFF"/><text text-anchor="middle" pointer-events="none" y="5" font-size="10px" fill="#FFFFFF" font-family="sans-serif"> Bran_Stark</text></g><g class="node" transform="translate(70.46500195927149,330.7995553880346)"><circle class="outline" cx="0" cy="0" r="32.5" fill="#C990C0" stroke="#b261a5" stroke-width="2px"/><text text-anchor="middle" pointer-events="none" font-family="sans-serif" dy="2.03125" font-size="32.5" fill="#FFFFFF"/><text text-anchor="middle" pointer-events="none" y="5" font-size="10px" fill="#FFFFFF" font-family="sans-serif"> Euron_Grey…</text></g><g class="node" transform="translate(304.4368094947662,-66.76700984243757)"><circle class="outline" cx="0" cy="0" r="32.5" fill="#C990C0" stroke="#b261a5" stroke-width="2px"/><text text-anchor="middle" pointer-events="none" font-family="sans-serif" dy="2.03125" font-size="32.5" fill="#FFFFFF"/><text text-anchor="middle" pointer-events="none" y="5" font-size="10px" fill="#FFFFFF" font-family="sans-serif"> Beric_Dond…</text></g><g class="node" transform="translate(-95.79113227528617,238.95089807457956)"><circle class="outline" cx="0" cy="0" r="32.5" fill="#C990C0" stroke="#b261a5" stroke-width="2px"/><text text-anchor="middle" pointer-events="none" font-family="sans-serif" dy="2.03125" font-size="32.5" fill="#FFFFFF"/><text text-anchor="middle" pointer-events="none" y="5" font-size="10px" fill="#FFFFFF" font-family="sans-serif"> Jaime_Lan…</text></g><g class="node" transform="translate(211.78669865429973,-30.570442067388402)"><circle class="outline" cx="0" cy="0" r="32.5" fill="#C990C0" stroke="#b261a5" stroke-width="2px"/><text text-anchor="middle" pointer-events="none" font-family="sans-serif" dy="2.03125" font-size="32.5" fill="#FFFFFF"/><text text-anchor="middle" pointer-events="none" y="5" font-size="10px" fill="#FFFFFF" font-family="sans-serif"> Varys</text></g><g class="node" transform="translate(390.74429928579497,170.6558827842317)"><circle class="outline" cx="0" cy="0" r="32.5" fill="#C990C0" stroke="#b261a5" stroke-width="2px"/><text text-anchor="middle" pointer-events="none" font-family="sans-serif" dy="2.03125" font-size="32.5" fill="#FFFFFF"/><text text-anchor="middle" pointer-events="none" y="5" font-size="10px" fill="#FFFFFF" font-family="sans-serif"> Daenerys_…</text></g><g class="node" transform="translate(62.271633693826125,-156.68549957034756)"><circle class="outline" cx="0" cy="0" r="32.5" fill="#C990C0" stroke="#b261a5" stroke-width="2px"/><text text-anchor="middle" pointer-events="none" font-family="sans-serif" dy="2.03125" font-size="32.5" fill="#FFFFFF"/><text text-anchor="middle" pointer-events="none" y="5" font-size="10px" fill="#FFFFFF" font-family="sans-serif"> Sansa_Stark</text></g><g class="node" transform="translate(300.1143669601665,69.09556542480314)"><circle class="outline" cx="0" cy="0" r="40" fill="#8DCC93" stroke="#5db665" stroke-width="2px"/><text text-anchor="middle" pointer-events="none" font-family="sans-serif" dy="2.5" font-size="40" fill="#604A0E"/><text text-anchor="middle" pointer-events="none" y="5" font-size="10px" fill="#604A0E" font-family="sans-serif"> 72</text></g><g class="node" transform="translate(-8.223557535795578,-45.12403462116075)"><circle class="outline" cx="0" cy="0" r="40" fill="#8DCC93" stroke="#5db665" stroke-width="2px"/><text text-anchor="middle" pointer-events="none" font-family="sans-serif" dy="2.5" font-size="40" fill="#604A0E"/><text text-anchor="middle" pointer-events="none" y="5" font-size="10px" fill="#604A0E" font-family="sans-serif"> 73</text></g><g class="node" transform="translate(34.1197218783166,198.96551687176483)"><circle class="outline" cx="0" cy="0" r="40" fill="#8DCC93" stroke="#5db665" stroke-width="2px"/><text text-anchor="middle" pointer-events="none" font-family="sans-serif" dy="2.5" font-size="40" fill="#604A0E"/><text text-anchor="middle" pointer-events="none" y="5" font-size="10px" fill="#604A0E" font-family="sans-serif"> 74</text></g><g class="node" transform="translate(-64.99393466316225,74.42220960638294)"><circle class="outline" cx="0" cy="0" r="32.5" fill="#C990C0" stroke="#b261a5" stroke-width="2px"/><text text-anchor="middle" pointer-events="none" font-family="sans-serif" dy="2.03125" font-size="32.5" fill="#FFFFFF"/><text text-anchor="middle" pointer-events="none" y="5" font-size="10px" fill="#FFFFFF" font-family="sans-serif"> The_Lords_…</text></g><g class="node" transform="translate(-47.791728016809984,-166.0183146295799)"><circle class="outline" cx="0" cy="0" r="32.5" fill="#C990C0" stroke="#b261a5" stroke-width="2px"/><text text-anchor="middle" pointer-events="none" font-family="sans-serif" dy="2.03125" font-size="32.5" fill="#FFFFFF"/><text text-anchor="middle" pointer-events="none" y="5" font-size="10px" fill="#FFFFFF" font-family="sans-serif"> Littlefinger</text></g><g class="node" transform="translate(465.40287093698237,62.59028406914672)"><circle class="outline" cx="0" cy="0" r="32.5" fill="#C990C0" stroke="#b261a5" stroke-width="2px"/><text text-anchor="middle" pointer-events="none" font-family="sans-serif" dy="2.03125" font-size="32.5" fill="#FFFFFF"/><text text-anchor="middle" pointer-events="none" y="5" font-size="10px" fill="#FFFFFF" font-family="sans-serif"> Jon_Snow</text></g><g class="node" transform="translate(228.9436275013699,192.91732272417832)"><circle class="outline" cx="0" cy="0" r="32.5" fill="#C990C0" stroke="#b261a5" stroke-width="2px"/><text text-anchor="middle" pointer-events="none" font-family="sans-serif" dy="2.03125" font-size="32.5" fill="#FFFFFF"/><text text-anchor="middle" pointer-events="none" y="5" font-size="10px" fill="#FFFFFF" font-family="sans-serif"> Jorah_Mor…</text></g><g class="node" transform="translate(310.6916877581009,211.14498958291887)"><circle class="outline" cx="0" cy="0" r="32.5" fill="#C990C0" stroke="#b261a5" stroke-width="2px"/><text text-anchor="middle" pointer-events="none" font-family="sans-serif" dy="2.03125" font-size="32.5" fill="#FFFFFF"/><text text-anchor="middle" pointer-events="none" y="5" font-size="10px" fill="#FFFFFF" font-family="sans-serif"> Theon_and…</text></g><g class="node" transform="translate(418.06884738660585,-35.93186057461883)"><circle class="outline" cx="0" cy="0" r="32.5" fill="#C990C0" stroke="#b261a5" stroke-width="2px"/><text text-anchor="middle" pointer-events="none" font-family="sans-serif" dy="2.03125" font-size="32.5" fill="#FFFFFF"/><text text-anchor="middle" pointer-events="none" y="5" font-size="10px" fill="#FFFFFF" font-family="sans-serif"> Tyrion_Lan…</text></g><g class="node" transform="translate(-29.869613350427983,313.6310763540921)"><circle class="outline" cx="0" cy="0" r="32.5" fill="#C990C0" stroke="#b261a5" stroke-width="2px"/><text text-anchor="middle" pointer-events="none" font-family="sans-serif" dy="2.03125" font-size="32.5" fill="#FFFFFF"/><text text-anchor="middle" pointer-events="none" y="5" font-size="10px" fill="#FFFFFF" font-family="sans-serif"> Cersei_Lan…</text></g><g class="node" transform="translate(-128.8372393058195,-88.94638533659548)"><circle class="outline" cx="0" cy="0" r="32.5" fill="#C990C0" stroke="#b261a5" stroke-width="2px"/><text text-anchor="middle" pointer-events="none" font-family="sans-serif" dy="2.03125" font-size="32.5" fill="#FFFFFF"/><text text-anchor="middle" pointer-events="none" y="5" font-size="10px" fill="#FFFFFF" font-family="sans-serif"> Arya_Stark</text></g></g></svg>